# xmcd
#
# Track frame offsets: 
#        150
#        14457
#        25712
#        40090
#        51357
#        69847
#        84722
#        97910
#        112200
#        124810
#        140277
#        157156
#        178268
#
# Disc length: 2447 seconds
#
# Revision: 0
# Processed by: cddbd v1.5.2PL0 Copyright (c) Steve Scherf et al.
# Submitted via: ExactAudioCopyFreeDBPlugin 1.0
#
DISCID=af098d0d
DTITLE=Ernie K-Doe - Here Come the Girls! (2008 Reissue)
DYEAR=1970
DGENRE=R&B Soul New Orleans
TTITLE0=Here Come the Girls!
TTITLE1=Back Street Lover
TTITLE2=A Place Where We Can Be Free
TTITLE3=Whoever Is Thrilling  You (Is Killing Me)
TTITLE4=I'm Only Human
TTITLE5=Kiss Tomorrow Goodbye
TTITLE6=Fly Away with Me
TTITLE7=A Long Way Back Home
TTITLE8=Lawdy Mama
TTITLE9=Talkin' 'Bout this Woman
TTITLE10=Hotcha Mama
TTITLE11=(I Can't Believe) She Gave It All to Me
TTITLE12=Mother-in-Law (Alternate Version)
EXTD=
EXTT0=
EXTT1=
EXTT2=
EXTT3=
EXTT4=
EXTT5=
EXTT6=
EXTT7=
EXTT8=
EXTT9=
EXTT10=
EXTT11=
EXTT12=
PLAYORDER=
